<?xml version="1.0" encoding="utf-8"?>
<!-- Generator: Adobe Illustrator 28.0.0, SVG Export Plug-In . SVG Version: 6.00 Build 0)  -->
<svg version="1.0" id="Layer_1" xmlns="http://www.w3.org/2000/svg" xmlns:xlink="http://www.w3.org/1999/xlink" x="0px" y="0px"
	 viewBox="0 0 134.4 252" style="enable-background:new 0 0 134.4 252;" xml:space="preserve">
<style type="text/css">
	.st0{fill:#31B5ED;}
	.st1{clip-path:url(#SVGID_00000173147211388997608540000013899318035399383734_);}
	.st2{fill:#CFE1EC;}
	.st3{fill:#0A94CC;}
	.st4{fill:#FFFFFF;}
	.st5{fill:#231F20;}
	.st6{fill:#FB422D;}
	.st7{display:none;fill:#FFFFFF;}
	.st8{fill:#C3FFAB;}
	.st9{fill:#00FF4E;}
	.st10{fill:#515187;}
</style>
<g id="Win_Mascot" transform="translate(0)">
	<g id="Path_135">
		<path class="st0" d="M74.9,204.9l-2,2.4c0,0,4.3,3.7,3.4,7.3c-1.6,6.1-16.5,8-16.5,8c0.3,0.6,4,9.7,4.4,10.7s3.3-1.5,2.1-4.2
			c-0.7-1.4-1.6-2.7-2.6-3.9c9.4-2.1,14.5-5.3,15.6-9.7C80.8,209.9,75.2,205.1,74.9,204.9"/>
	</g>
	<g id="Path_136">
		<path class="st0" d="M28.7,203.3c0.7-3.2,7.5-4.9,9.8-5.3l-0.5-3c-1.1,0.2-11.1,1.8-12.4,7.7c-0.8,3.8,2.1,7.9,8.9,12.6
			c-1.4,0.4-2.8,0.9-4.1,1.6c-2.6,1.5-1.4,5-0.5,4.4l9.9-6C39.9,215.2,27.8,207.8,28.7,203.3"/>
	</g>
	<g id="Group_94" transform="translate(8.94 191.797)">
		<g id="Group_93" transform="translate(0 0)">
			<g>
				<g>
					<g>
						<defs>
							<rect id="SVGID_1_" x="3.4" y="42.2" width="81.1" height="13.5"/>
						</defs>
						<clipPath id="SVGID_00000150787029173316225080000006401270116403118476_">
							<use xlink:href="#SVGID_1_"  style="overflow:visible;"/>
						</clipPath>
						<g id="Group_92" style="clip-path:url(#SVGID_00000150787029173316225080000006401270116403118476_);">
							<g id="Path_137">
								<path class="st2" d="M84.5,49c0,3.7-18.1,6.7-40.5,6.7S3.4,52.7,3.4,49s18.1-6.7,40.5-6.7S84.5,45.2,84.5,49"/>
							</g>
						</g>
					</g>
				</g>
			</g>
		</g>
	</g>
	<g>
		<path class="st0" d="M80,42.2c-22.3,44.6-59.8,59.8-68.2,102c-5.9,29.6,11.7,54.4,40.9,61.9s61.2-10.8,66.2-40.6
			C127.1,116.4,105.8,73.6,80,42.2z"/>
	</g>
	<g id="Path_139">
		<path class="st3" d="M66.8,145.2c23,4.6,65.9,21.9,25.4,49.7c-20.4,14-62.5,4.1-73.2-22.2C11.5,154.5,25.2,136.9,66.8,145.2"/>
	</g>
	<g id="Path_140">
		<path class="st4" d="M79.6,62.9c3.9,2.8,1.8,13.1-4.4,21.6s-14.1,11.9-18,9.1s1.7-9.9,7.8-18.4S75.7,60.1,79.6,62.9"/>
	</g>
	<g id="Path_141">
		<path class="st4" d="M49.2,98.7c1.9,1.7,1.7,5.1-0.5,7.6s-5.6,3.3-7.5,1.6s-1.7-5.1,0.5-7.6S47.3,97,49.2,98.7"/>
	</g>
	<g id="Path_142">
		<path class="st5" d="M72.1,174.6c2.5,4.1-3.4,10.2-12.5,8.4s-11.5-10.1-8.3-12.5c1.9-1.4,5,1.2,10.3,2.3S70.9,172.6,72.1,174.6"/>
	</g>
	<g id="Path_143">
		<path class="st6" d="M52.8,179.5c1.9,1.8,4.3,3.1,6.9,3.5c2.8,0.6,5.7,0.4,8.3-0.6C63.2,173.8,56.5,176.7,52.8,179.5"/>
	</g>
	<g id="Path_144">
		<path class="st4" d="M85,167.4c-0.8,4.1,1.8,8.1,6,8.9c4.1,0.8,8.1-1.8,8.9-6c0.8-4.1-1.8-8.1-6-8.9l0,0
			C89.9,160.6,85.9,163.3,85,167.4"/>
	</g>
	<g id="Path_145">
		<path class="st5" d="M87.4,167.8c-0.6,2.8,1.3,5.6,4.1,6.2s5.6-1.3,6.2-4.1s-1.3-5.6-4.1-6.2l0,0C90.7,163.1,88,164.9,87.4,167.8"
			/>
	</g>
	<g id="Path_146">
		<path class="st4" d="M93.1,165.2c0.2,0.7-0.7,1.4-1.8,1.7s-1.9,0.3-2.1-0.4s0.5-1.6,1.5-1.9S92.9,164.5,93.1,165.2"/>
	</g>
	<g id="Path_147">
		<path class="st4" d="M95.1,171.9c0.4,0.4,0.4,1.1,0,1.5s-1.1,0.4-1.5,0s-0.4-1.1,0-1.5c0.1-0.1,0.2-0.1,0.2-0.2
			C94.2,171.4,94.8,171.5,95.1,171.9"/>
	</g>
	<g id="Path_148">
		<path class="st4" d="M27.5,155.9c-0.8,4.1,1.8,8.1,6,8.9c4.1,0.8,8.1-1.8,8.9-6c0.8-4.1-1.8-8.1-6-8.9l0,0
			C32.3,149.1,28.3,151.8,27.5,155.9"/>
	</g>
	<g id="Path_149">
		<path class="st5" d="M29.8,156.3c-0.6,2.8,1.3,5.6,4.1,6.2s5.6-1.3,6.2-4.1c0.6-2.8-1.3-5.6-4.1-6.2l0,0
			C33.1,151.6,30.4,153.4,29.8,156.3L29.8,156.3"/>
	</g>
	<g id="Path_150">
		<path class="st4" d="M35.8,153.6c0.2,0.7-0.7,1.4-1.8,1.7s-1.9,0.3-2.1-0.4c-0.2-0.7,0.5-1.6,1.5-1.9S35.6,152.9,35.8,153.6"/>
	</g>
	<g id="Path_151">
		<path class="st4" d="M37.8,160.3c0.4,0.4,0.4,1.1,0,1.5s-1.1,0.4-1.5,0s-0.4-1.1,0-1.5c0.1-0.1,0.2-0.1,0.2-0.2
			C36.9,159.8,37.5,159.9,37.8,160.3"/>
	</g>
	<g>
		<path class="st0" d="M17.4,89.7c0,0,1-2.4,0.3-3.5c-1.2-1.9-5.2-1.8-7.3,1.3c-0.8,1.2-1,4.7-0.2,7c-16.3,27,1.8,57.1,2,57.4
			l2.7-1.6c-0.2-0.3-17.3-28.7-2.1-54c1.5-0.4,4-1.7,4.8-3.4C18.4,91.9,18.2,90.6,17.4,89.7L17.4,89.7z"/>
	</g>
	<g id="Path_153">
		<path class="st0" d="M130.9,173.2c-0.7-3.7-4.4-5.3-6.2-4c-1.1,0.8-1,3.3-1,3.3c-1.1,0.5-1.7,1.7-1.5,2.8c0.1,1.5,1.4,3.3,2.5,4.4
			c-0.8,4.5-3.2,12.9-6.6,13.2c-0.2,0-0.5-0.1-0.6-0.2c-2.2-2.1-2.4-12.1-1.9-18.5l-3.1-0.2c-0.2,2.8-1.1,17.1,2.9,21
			c0.7,0.7,1.7,1.1,2.7,1.1c0.1,0,0.3,0,0.4,0c6.4-0.7,8.9-12.8,9.4-15.9C129.6,178.7,131.2,174.8,130.9,173.2"/>
	</g>
</g>
<path class="st7" d="M10.9,96.2L10.9,96.2c-0.4-0.3-0.6-0.9-0.3-1.3l50.2-83.7c0.3-0.5,0.9-0.6,1.4-0.3l0,0c0.4,0.3,0.6,0.9,0.3,1.3
	L12.3,95.9C12,96.4,11.4,96.5,10.9,96.2z"/>
<g>
	<path class="st4" d="M62.2,10.9c-0.5-0.3-1.1-0.2-1.4,0.3L17.4,83.6l1.7,1l43.4-72.4C62.8,11.8,62.7,11.2,62.2,10.9z"/>
	<path class="st8" d="M19.8,87.3l-5.1-3l44.4-74.1c0.9-1.4,2.7-1.9,4.1-1l0,0c0.7,0.4,1.2,1.1,1.4,2c0.1,0.7,0,1.5-0.4,2.2
		L19.8,87.3z"/>
</g>
<g>
	<path class="st4" d="M62.2,10.9c-0.5-0.3-1.1-0.2-1.4,0.3L17.4,83.5l1.7,1l43.4-72.3C62.8,11.8,62.7,11.2,62.2,10.9z"/>
	<path class="st9" d="M19.4,85.9l-3.4-2l43.9-73.2c0.6-1,1.8-1.2,2.8-0.6h0c0.5,0.3,0.8,0.8,0.9,1.3c0.1,0.5,0,1-0.3,1.4L19.4,85.9z
		 M61.7,11.8C61.7,11.8,61.7,11.8,61.7,11.8l0.5-0.9L61.7,11.8z"/>
</g>
<g>
	<path class="st4" d="M62.2,10.9c-0.5-0.3-1.1-0.2-1.4,0.3L16.5,85l1.7,1l44.3-73.8C62.8,11.8,62.7,11.2,62.2,10.9z"/>
</g>
<g>
	<path class="st10" d="M10.6,94.9c-0.3,0.4-0.1,1,0.3,1.3c0.5,0.3,1.1,0.2,1.4-0.3l5.9-9.9l-1.7-1L10.6,94.9z"/>
</g>
</svg>
